<svg xmlns="http://www.w3.org/2000/svg" width="55.714" height="52" viewBox="0 0 55.714 52">
  <path id="Add_Camera-595b40b85ba036ed117dbeab" data-name="Add Camera-595b40b85ba036ed117dbeab" d="M20.652,2a4.893,4.893,0,0,0-4.418,3.047l-.3.667H6.571A5.578,5.578,0,0,0,1,11.286v26a5.578,5.578,0,0,0,5.571,5.571H20.362a20.437,20.437,0,0,1-.7-3.714H6.571a1.86,1.86,0,0,1-1.857-1.857v-26A1.86,1.86,0,0,1,6.571,9.429H18.338L19.622,6.57a1.276,1.276,0,0,1,1.03-.856h12.7a1.283,1.283,0,0,1,1.03.856l1.284,2.858H47.429a1.86,1.86,0,0,1,1.857,1.857v7.82A20.466,20.466,0,0,1,53,21.529V11.286a5.578,5.578,0,0,0-5.571-5.571H38.063l-.3-.675A4.9,4.9,0,0,0,33.348,2ZM8.429,13.143v3.714h3.714V13.143Zm18.571,0a11.1,11.1,0,0,0-6.95,19.783,19.92,19.92,0,0,1,1.277-3.9,7.354,7.354,0,0,1-1.756-4.737A7.436,7.436,0,0,1,27,16.857a7.354,7.354,0,0,1,4.737,1.756,20.428,20.428,0,0,1,3.9-1.277A11.075,11.075,0,0,0,27,13.143Zm13,7.429A16.714,16.714,0,1,0,56.714,37.286,16.743,16.743,0,0,0,40,20.571Zm0,3.714a13,13,0,1,1-13,13A12.972,12.972,0,0,1,40,24.286ZM38.143,28v7.429H30.714v3.714h7.429v7.429h3.714V39.143h7.429V35.429H41.857V28Z" transform="translate(-1 -2)"/>
</svg>
